# Blender3D v249 OBJ File: ship1.blend
# www.blender3d.org
v 1.000000 -0.566667 -1.000000
v 1.000000 -0.566667 1.000000
v -1.000000 -0.566667 1.000000
v -1.000000 -0.566667 -1.000000
v 1.000000 0.433333 -0.999999
v 0.999999 0.433333 1.000000
v -1.000000 0.433333 1.000000
v -1.000000 0.433333 -1.000000
v -0.399999 -0.066667 -3.000000
v 0.400001 -0.066667 -3.000000
v -0.399999 -0.466667 -3.000000
v 0.400001 -0.466667 -3.000000
v 3.000000 -0.666666 1.000001
v 3.000000 -0.666667 -0.999999
v 3.000000 -0.666666 1.000000
v 3.000000 -0.666667 -0.999999
v -3.000000 -0.666667 -1.000000
v -3.000000 -0.666667 0.999999
v -3.000000 -0.666667 -1.000001
v -3.000000 -0.666667 0.999999
v -1.000000 0.433333 1.090723
v 0.999999 0.433333 1.090724
v -1.000000 -0.566667 1.090723
v 1.000000 -0.566667 1.090724
v -1.000000 0.433333 -1.000000
v -1.000000 0.533428 1.000000
v 0.999999 0.533428 1.000000
v 1.000000 0.433333 -0.999999
v 0.967748 -0.542195 1.090724
v -0.967748 -0.542195 1.090723
v 0.967747 0.408862 1.090724
v -0.967748 0.408862 1.090723
v -0.967748 0.408862 1.061065
v 0.967747 0.408862 1.061066
v -0.967748 -0.542195 1.061066
v 0.967748 -0.542195 1.061066
vt 0.000000 0.000000
vt 1.000000 0.000000
vt 0.000000 1.000000
vt 1.000000 1.000000
vn -0.000000 -0.000001 1.000000
vn -0.000000 0.000000 1.000000
vn 0.000000 1.000000 -0.000000
vn -1.000000 -0.000001 0.000000
vn 1.000000 0.000000 -0.000000
vn 0.000000 -1.000000 0.000000
vn -0.000000 0.000001 1.000000
vn 0.000000 0.998750 -0.049985
vn 0.000000 0.000000 0.000000
vn 1.000000 0.000000 0.000001
vn -1.000000 -0.000000 -0.000000
vn 1.000000 0.000001 0.000000
vn 0.049938 -0.998752 0.000000
vn -0.048970 0.979404 0.195882
vn 0.000000 0.000000 -1.000000
vn -0.049828 0.996546 -0.066437
vn -0.481919 0.876216 -0.000000
vn -0.049938 -0.998752 0.000000
vn 0.000001 0.000000 -1.000000
vn 0.049888 0.997770 -0.044345
vn -0.000001 -0.000000 1.000000
vn -0.049875 -0.997509 -0.049875
vn 0.481919 0.876216 0.000000
vn 0.000000 0.000001 -1.000000
vn 0.000000 -0.998752 -0.049938
vn 0.957826 -0.000000 -0.287348
vn -0.957826 -0.000000 -0.287348
vn 0.000000 0.970143 -0.242536
vn 0.000000 0.970142 -0.242536
usemtl Material
s off
f 36/1/1 34/2/1 35/3/1
f 34/2/2 33/4/2 35/3/2
f 30/1/3 29/2/3 36/4/3
f 30/1/3 36/4/3 35/3/3
f 29/1/4 31/2/4 34/4/4
f 29/1/4 34/4/4 36/3/4
f 32/1/5 30/2/5 35/4/5
f 32/1/5 35/4/5 33/3/5
f 31/1/6 32/2/6 33/4/6
f 31/1/6 33/4/6 34/3/6
f 22/1/7 21/2/7 31/3/7
f 21/2/1 32/4/1 31/3/1
f 21/1/2 23/2/2 30/4/2
f 21/1/2 30/4/2 32/3/2
f 24/1/2 22/2/2 31/4/2
f 24/1/1 31/4/1 29/3/1
f 23/1/2 24/2/2 29/4/2
f 23/1/2 29/4/2 30/3/2
f 28/1/8 25/2/8 27/3/8
f 25/2/8 26/4/8 27/3/8
f 6/1/9 5/2/9 28/4/9
f 6/1/10 28/4/10 27/3/10
f 5/1/9 8/2/9 25/4/9
f 5/1/9 25/4/9 28/3/9
f 7/1/2 6/2/2 27/4/2
f 7/1/2 27/4/2 26/3/2
f 8/1/9 7/2/9 25/3/9
f 7/2/11 26/4/11 25/3/11
f 3/1/6 2/2/6 24/4/6
f 3/1/6 24/4/6 23/3/6
f 2/1/12 6/2/12 24/3/12
f 6/2/12 22/4/12 24/3/12
f 7/1/11 3/2/11 21/3/11
f 3/2/11 23/4/11 21/3/11
f 6/1/3 7/2/3 21/4/3
f 6/1/3 21/4/3 22/3/3
f 20/1/6 18/2/6 17/4/6
f 20/1/6 17/4/6 19/3/6
f 4/1/13 3/2/13 19/3/13
f 3/2/13 20/4/13 19/3/13
f 3/1/2 7/2/2 18/4/2
f 3/1/14 18/4/14 20/3/14
f 8/1/15 4/2/15 17/3/15
f 4/2/16 19/4/16 17/3/16
f 7/1/17 8/2/17 17/4/17
f 7/1/17 17/4/17 18/3/17
f 16/1/6 14/2/6 15/3/6
f 14/2/3 13/4/3 15/3/3
f 2/1/18 1/2/18 16/4/18
f 2/1/18 16/4/18 15/3/18
f 1/1/19 5/2/19 14/4/19
f 1/1/20 14/4/20 16/3/20
f 6/1/21 2/2/21 13/3/21
f 2/2/22 15/4/22 13/3/22
f 5/1/23 6/2/23 13/4/23
f 5/1/23 13/4/23 14/3/23
f 10/1/24 12/2/24 11/4/24
f 10/1/24 11/4/24 9/3/24
f 1/1/25 4/2/25 11/4/25
f 1/1/25 11/4/25 12/3/25
f 5/1/26 1/2/26 10/3/26
f 1/2/26 12/4/26 10/3/26
f 4/1/27 8/2/27 9/4/27
f 4/1/27 9/4/27 11/3/27
f 8/1/28 5/2/28 10/4/28
f 8/1/29 10/4/29 9/3/29
f 1/1/6 2/2/6 3/4/6
f 1/1/6 3/4/6 4/3/6
